<svg id="l_d_4318" xmlns="http://www.w3.org/2000/svg" xmlns:xlink="http://www.w3.org/1999/xlink" viewBox="0 0 45 45" width="45" height="45" preserveAspectRatio="xMidYMid meet" style="width: 100%; height: 100%; transform: translate3d(0px, 0px, 0px); content-visibility: visible;"><defs id="l_d_4319"><clipPath id="__lottie_element_1835"><rect id="l_d_4322" width="45" height="45" x="0" y="0"></rect></clipPath><g id="__lottie_element_1855"><g id="l_d_4359" transform="matrix(1,0,0,1,-23,-19.25)" opacity="1" style="display: block;"><g id="l_d_4364" opacity="1" transform="matrix(1,0,0,1,40,44)"><path id="l_d_4365" fill="rgb(34,34,34)" fill-opacity="1" d=" M11.930999755859375,0 C11.930999755859375,0 -11.930999755859375,0 -11.930999755859375,0 C-11.930999755859375,0 -14.982999801635742,-21.448999404907227 -14.982999801635742,-21.448999404907227 C-14.982999801635742,-21.448999404907227 15.00100040435791,-21.322999954223633 15.00100040435791,-21.322999954223633 C15.00100040435791,-21.322999954223633 11.930999755859375,0 11.930999755859375,0z"></path></g></g></g><mask id="__lottie_element_1855_1" mask-type="alpha"><use id="l_d_4374" xlink:href="#__lottie_element_1855"></use></mask><g id="__lottie_element_1861"><g id="l_d_4375" transform="matrix(1,0,0,1,-23,-19.25)" opacity="1" style="display: block;"><g id="l_d_4380" opacity="1" transform="matrix(1,0,0,1,40,44)"><path id="l_d_4381" fill="rgb(34,34,34)" fill-opacity="1" d=" M11.930999755859375,0 C11.930999755859375,0 -11.930999755859375,0 -11.930999755859375,0 C-11.930999755859375,0 -14.982999801635742,-21.448999404907227 -14.982999801635742,-21.448999404907227 C-14.982999801635742,-21.448999404907227 15.00100040435791,-21.322999954223633 15.00100040435791,-21.322999954223633 C15.00100040435791,-21.322999954223633 11.930999755859375,0 11.930999755859375,0z"></path></g></g></g><mask id="__lottie_element_1861_1" mask-type="alpha"><use id="l_d_4390" xlink:href="#__lottie_element_1861"></use></mask><g id="__lottie_element_1867"><g id="l_d_4391" transform="matrix(1,0,0,1,-23,-19.25)" opacity="1" style="display: block;"><g id="l_d_4396" opacity="1" transform="matrix(1,0,0,1,40,44)"><path id="l_d_4397" fill="rgb(34,34,34)" fill-opacity="1" d=" M-14.991999626159668,10.925999641418457 C-14.991999626159668,10.925999641418457 -11.930999755859375,0 -11.930999755859375,0 C-11.930999755859375,0 11.930999755859375,0 11.930999755859375,0 C11.930999755859375,0 14.991999626159668,11.052000045776367 14.991999626159668,11.052000045776367"></path></g></g></g><filter id="__lottie_element_1873" filterUnits="objectBoundingBox" x="0%" y="0%" width="100%" height="100%"><feComponentTransfer id="l_d_4408" in="SourceGraphic"><feFuncA id="l_d_4409" type="table" tableValues="1.0 0.0"></feFuncA></feComponentTransfer></filter><mask id="__lottie_element_1867_2" mask-type="alpha"><g id="l_d_4406" filter="url(#__lottie_element_1873)"><rect id="l_d_4410" width="45" height="45" x="0" y="0" fill="#ffffff" opacity="0"></rect><use id="l_d_4411" xlink:href="#__lottie_element_1867"></use></g></mask><g id="__lottie_element_1874"><g id="l_d_4412" transform="matrix(1,0,0,1,-23,-19.25)" opacity="1" style="display: block;"><g id="l_d_4417" opacity="1" transform="matrix(1,0,0,1,40,44)"><path id="l_d_4418" fill="rgb(34,34,34)" fill-opacity="1" d=" M-14.991999626159668,10.925999641418457 C-14.991999626159668,10.925999641418457 -11.930999755859375,0 -11.930999755859375,0 C-11.930999755859375,0 11.930999755859375,0 11.930999755859375,0 C11.930999755859375,0 14.991999626159668,11.052000045776367 14.991999626159668,11.052000045776367"></path></g></g></g><filter id="__lottie_element_1880" filterUnits="objectBoundingBox" x="0%" y="0%" width="100%" height="100%"><feComponentTransfer id="l_d_4429" in="SourceGraphic"><feFuncA id="l_d_4430" type="table" tableValues="1.0 0.0"></feFuncA></feComponentTransfer></filter><mask id="__lottie_element_1874_2" mask-type="alpha"><g id="l_d_4427" filter="url(#__lottie_element_1880)"><rect id="l_d_4431" width="45" height="45" x="0" y="0" fill="#ffffff" opacity="0"></rect><use id="l_d_4432" xlink:href="#__lottie_element_1874"></use></g></mask></defs><g id="l_d_4320" clip-path="url(#__lottie_element_1835)"><g id="l_d_4433" transform="matrix(1,0,0,1,-23,-19.25)" opacity="1" style="display: block;"><g id="l_d_4437" opacity="1" transform="matrix(1,0,0,1,40,49)"><path id="l_d_4438" stroke-linecap="butt" stroke-linejoin="round" fill-opacity="0" stroke="rgb(34,34,34)" stroke-opacity="1" stroke-width="2" d=" M-12,-5 C-12,-5 12,-5 12,-5 C12,-5 12,5 12,5 C12,5 -12,5 -12,5 C-12,5 -12,-5 -12,-5z"></path></g><g id="l_d_4439" opacity="1" transform="matrix(1,0,0,1,40,44)"><path id="l_d_4440" stroke-linecap="butt" stroke-linejoin="round" fill-opacity="0" stroke="rgb(34,34,34)" stroke-opacity="1" stroke-width="2" d=" M-15,0 C-15,0 15,0 15,0"></path></g></g><g id="l_d_4420" mask="url(#__lottie_element_1874_2)" style="display: block;"><g id="l_d_4419" transform="matrix(1,0,0,1,-23,-19.25)" opacity="1"><g id="l_d_4423" opacity="1" transform="matrix(1,0,0,1,0,0)"><g id="l_d_4424" opacity="1" transform="matrix(1,0,0,1,40,41.479000091552734)"><path id="l_d_4425" stroke-linecap="butt" stroke-linejoin="miter" fill-opacity="0" stroke-miterlimit="4" stroke="rgb(34,34,34)" stroke-opacity="1" stroke-width="2" d=" M0,3.244999885559082 C1.2369999885559082,3.244999885559082 2.25,2.1760001182556152 2.25,1.0809999704360962 C2.25,-0.10899999737739563 1.5,-1.5509999990463257 0,-3.244999885559082 C-1.5,-1.5509999990463257 -2.25,-0.10899999737739563 -2.25,1.0809999704360962 C-2.25,2.1760001182556152 -1.2369999885559082,3.244999885559082 0,3.244999885559082 C0,3.244999885559082 0,3.244999885559082 0,3.244999885559082z"></path></g></g></g></g><g id="l_d_4399" mask="url(#__lottie_element_1867_2)" style="display: block;"><g id="l_d_4398" transform="matrix(1,0,0,1,-23,-19.25)" opacity="1"><g id="l_d_4402" opacity="1" transform="matrix(1,0,0,1,0,0)"><g id="l_d_4403" opacity="1" transform="matrix(1,0,0,1,40,36.91899871826172)"><path id="l_d_4404" stroke-linecap="round" stroke-linejoin="miter" fill-opacity="0" stroke-miterlimit="4" stroke="rgb(34,34,34)" stroke-opacity="1" stroke-width="2" d=" M0,-8.11400032043457 C3.318000078201294,-6.011000156402588 6,-1.3519999980926514 6,2.0280001163482666 C6,6.085000038146973 3.0380001068115234,8.11400032043457 0,8.11400032043457 C-2.990000009536743,8.11400032043457 -6,6.5920000076293945 -6,2.0280001163482666 C-6,0.33799999952316284 -5.166999816894531,-1.690000057220459 -3.5,-4.057000160217285 C-3.5,-4.057000160217285 -2,-3.0429999828338623 -2,-3.0429999828338623 C-2,-3.0429999828338623 -1.5,-7.544000148773193 0,-8.11400032043457z"></path></g></g></g></g><g id="l_d_4383" mask="url(#__lottie_element_1861_1)" style="display: block;"><g id="l_d_4382" transform="matrix(0,0,0,0,17,25.68499755859375)" opacity="1"><g id="l_d_4386" opacity="1" transform="matrix(1,0,0,1,0,0)"><g id="l_d_4387" opacity="1" transform="matrix(1,0,0,1,40,41.479000091552734)"><path id="l_d_4388" stroke-linecap="butt" stroke-linejoin="miter" fill-opacity="0" stroke-miterlimit="4" stroke="rgb(34,34,34)" stroke-opacity="1" stroke-width="2" d=" M0,3.244999885559082 C1.2369999885559082,3.244999885559082 2.25,2.1760001182556152 2.25,1.0809999704360962 C2.25,-0.10899999737739563 1.5,-1.5509999990463257 0,-3.244999885559082 C-1.5,-1.5509999990463257 -2.25,-0.10899999737739563 -2.25,1.0809999704360962 C-2.25,2.1760001182556152 -1.2369999885559082,3.244999885559082 0,3.244999885559082 C0,3.244999885559082 0,3.244999885559082 0,3.244999885559082z"></path></g></g></g></g><g id="l_d_4367" mask="url(#__lottie_element_1855_1)" style="display: block;"><g id="l_d_4366" transform="matrix(0,0,0,0,16.625,26.027999877929688)" opacity="1"><g id="l_d_4370" opacity="1" transform="matrix(1,0,0,1,0,0)"><g id="l_d_4371" opacity="1" transform="matrix(1,0,0,1,40,36.91899871826172)"><path id="l_d_4372" stroke-linecap="round" stroke-linejoin="miter" fill-opacity="0" stroke-miterlimit="4" stroke="rgb(34,34,34)" stroke-opacity="1" stroke-width="2" d=" M0,-8.11400032043457 C4,-4.732999801635742 6,-1.3519999980926514 6,2.0280001163482666 C6,6.085000038146973 3.0380001068115234,8.11400032043457 0,8.11400032043457 C-2.990000009536743,8.11400032043457 -6,6.5920000076293945 -6,2.0280001163482666 C-6,0.33799999952316284 -5.166999816894531,-1.690000057220459 -3.5,-4.057000160217285 C-3.5,-4.057000160217285 -2,-3.0429999828338623 -2,-3.0429999828338623 C-2,-3.0429999828338623 0,-8.11400032043457 0,-8.11400032043457z"></path></g></g></g></g><g id="l_d_4353" style="display: none;"><g id="l_d_4357"><path id="l_d_4358"></path></g></g><g id="l_d_4347" style="display: none;"><g id="l_d_4351"><path id="l_d_4352"></path></g></g><g id="l_d_4341" style="display: none;"><g id="l_d_4345"><path id="l_d_4346"></path></g></g><g id="l_d_4335" style="display: none;"><g id="l_d_4339"><path id="l_d_4340"></path></g></g><g id="l_d_4329" style="display: none;"><g id="l_d_4333"><path id="l_d_4334"></path></g></g><g id="l_d_4323" style="display: none;"><g id="l_d_4327"><path id="l_d_4328"></path></g></g></g></svg>