<svg id="l_d_5078" xmlns="http://www.w3.org/2000/svg" xmlns:xlink="http://www.w3.org/1999/xlink" viewBox="0 0 45 45" width="45" height="45" preserveAspectRatio="xMidYMid meet" style="width: 100%; height: 100%; transform: translate3d(0px, 0px, 0px); content-visibility: visible;"><defs id="l_d_5079"><clipPath id="__lottie_element_2173"><rect id="l_d_5082" width="45" height="45" x="0" y="0"></rect></clipPath><g id="__lottie_element_2176"><g id="l_d_5083" style="display: none;"><g id="l_d_5088"><path id="l_d_5089"></path></g></g></g><mask id="__lottie_element_2176_1" mask-type="alpha"><use id="l_d_5102" xlink:href="#__lottie_element_2176"></use></mask><g id="__lottie_element_2191"><g id="l_d_5121" style="display: none;"><g id="l_d_5126"><path id="l_d_5127"></path></g></g></g><mask id="__lottie_element_2191_1" mask-type="alpha"><use id="l_d_5135" xlink:href="#__lottie_element_2191"></use></mask></defs><g id="l_d_5080" clip-path="url(#__lottie_element_2173)"><g id="l_d_5129" mask="url(#__lottie_element_2191_1)" style="display: none;"><g id="l_d_5128"><g id="l_d_5132"><path id="l_d_5133" stroke-linecap="butt" stroke-linejoin="miter" fill-opacity="0" stroke-miterlimit="4"></path></g></g></g><g id="l_d_5115" transform="matrix(1,0,0,1,-22.625,-17.5)" opacity="1" style="display: block;"><g id="l_d_5119" opacity="1" transform="matrix(1,0,0,1,40,40)"><path id="l_d_5120" stroke-linecap="butt" stroke-linejoin="miter" fill-opacity="0" stroke-miterlimit="4" stroke="rgb(34,34,34)" stroke-opacity="1" stroke-width="2" d=" M-10,-12 C-10,-12 10,-12 10,-12 C12.208999633789062,-12 14,-10.208999633789062 14,-8 C14,-8 14,8 14,8 C14,10.208999633789062 12.208999633789062,12 10,12 C10,12 -10,12 -10,12 C-12.208999633789062,12 -14,10.208999633789062 -14,8 C-14,8 -14,-8 -14,-8 C-14,-10.208999633789062 -12.208999633789062,-12 -10,-12z"></path></g></g><g id="l_d_5109" transform="matrix(1,0,0,1,-22.625,-17.5)" opacity="1" style="display: block;"><g id="l_d_5113" opacity="1" transform="matrix(1,0,0,1,40,40)"><path id="l_d_5114" stroke-linecap="butt" stroke-linejoin="miter" fill-opacity="0" stroke-miterlimit="4" stroke="rgb(34,34,34)" stroke-opacity="1" stroke-width="2" d=" M-2,2 C-2.062000036239624,2.875 -2,6 -2,6 C-2,6 2,6 2,6 C2,6 2,2 2,2 C2,2 6,2 6,2 C6,2 6,-2 6,-2 C6,-2 2,-2 2,-2 C2,-2 2,-6 2,-6 C2,-6 -2,-6 -2,-6 C-2,-6 -2,-2 -2,-2 C-2,-2 -6,-2 -6,-2 C-6,-2 -6,2 -6,2 C-6,2 -3,1.937999963760376 -2,2z"></path></g></g><g id="l_d_5103" style="display: none;"><g id="l_d_5107"><path id="l_d_5108" stroke-linecap="butt" stroke-linejoin="miter" fill-opacity="0" stroke-miterlimit="4"></path></g></g><g id="l_d_5091" mask="url(#__lottie_element_2176_1)" style="display: none;"><g id="l_d_5090"><g id="l_d_5094"><g id="l_d_5095"><path id="l_d_5096" stroke-linecap="butt" stroke-linejoin="round" fill-opacity="0"></path></g><g id="l_d_5097"><path id="l_d_5098" stroke-linecap="butt" stroke-linejoin="round" fill-opacity="0"></path></g><g id="l_d_5099"><path id="l_d_5100"></path></g></g></g></g></g></svg>