<svg id="l_d_3912" xmlns="http://www.w3.org/2000/svg" xmlns:xlink="http://www.w3.org/1999/xlink" viewBox="0 0 45 45" width="45" height="45" preserveAspectRatio="xMidYMid meet" style="width: 100%; height: 100%; transform: translate3d(0px, 0px, 0px); content-visibility: visible;"><defs id="l_d_3913"><clipPath id="__lottie_element_1684"><rect id="l_d_3916" width="45" height="45" x="0" y="0"></rect></clipPath><clipPath id="__lottie_element_1686"><path id="l_d_3919" fill="#ffffff" clip-rule="nonzero"></path><path id="l_d_3920" fill="#ffffff" clip-rule="nonzero"></path></clipPath><clipPath id="__lottie_element_1689"><path id="l_d_3927" fill="#ffffff" clip-rule="nonzero"></path><path id="l_d_3928" fill="#ffffff" clip-rule="nonzero"></path></clipPath><clipPath id="__lottie_element_1692"><path id="l_d_3935" fill="#ffffff" clip-rule="nonzero"></path><path id="l_d_3936" fill="#ffffff" clip-rule="nonzero"></path></clipPath><clipPath id="__lottie_element_1695"><path id="l_d_3943" fill="#ffffff" clip-rule="nonzero"></path><path id="l_d_3944" fill="#ffffff" clip-rule="nonzero"></path></clipPath><clipPath id="__lottie_element_1698"><path id="l_d_3951" fill="#ffffff" clip-rule="nonzero"></path><path id="l_d_3952" fill="#ffffff" clip-rule="nonzero"></path></clipPath><clipPath id="__lottie_element_1701"><path id="l_d_3959" fill="#ffffff" clip-rule="nonzero"></path><path id="l_d_3960" fill="#ffffff" clip-rule="nonzero"></path></clipPath><clipPath id="__lottie_element_1704"><path id="l_d_3967" fill="#ffffff" clip-rule="nonzero"></path><path id="l_d_3968" fill="#ffffff" clip-rule="nonzero"></path></clipPath></defs><g id="l_d_3914" clip-path="url(#__lottie_element_1684)"><g id="l_d_3991" transform="matrix(1.0000008344650269,0,0,1.0000008344650269,-24.00003433227539,-18.374406814575195)" opacity="1" style="display: block;"><g id="l_d_3995" opacity="1" transform="matrix(1,0,0,1,51,50)"><path id="l_d_3996" stroke-linecap="butt" stroke-linejoin="miter" fill-opacity="0" stroke-miterlimit="4" stroke="rgb(34,34,34)" stroke-opacity="1" stroke-width="2" d=" M-2,-2 C-2,-2 2,-2 2,-2 C2,-2 2,1 2,1 C2,1.5520000457763672 1.5520000457763672,2 1,2 C1,2 -1,2 -1,2 C-1.5520000457763672,2 -2,1.5520000457763672 -2,1 C-2,1 -2,-2 -2,-2 C-2,-2 -2,-2 -2,-2z"></path></g><g id="l_d_3997" opacity="1" transform="matrix(1,0,0,1,29,50)"><path id="l_d_3998" stroke-linecap="butt" stroke-linejoin="miter" fill-opacity="0" stroke-miterlimit="4" stroke="rgb(34,34,34)" stroke-opacity="1" stroke-width="2" d=" M-2,-2 C-2,-2 2,-2 2,-2 C2,-2 2,1 2,1 C2,1.5520000457763672 1.5520000457763672,2 1,2 C1,2 -1,2 -1,2 C-1.5520000457763672,2 -2,1.5520000457763672 -2,1 C-2,1 -2,-2 -2,-2 C-2,-2 -2,-2 -2,-2z"></path></g></g><g id="l_d_3973" transform="matrix(1.0000008344650269,0,0,1.0000008344650269,-24.00003433227539,-18.374406814575195)" opacity="1" style="display: block;"><g id="l_d_3977" opacity="1" transform="matrix(1,0,0,1,40,43)"><path id="l_d_3978" stroke-linecap="butt" stroke-linejoin="miter" fill-opacity="0" stroke-miterlimit="4" stroke="rgb(34,34,34)" stroke-opacity="1" stroke-width="2" d=" M-9,-5 C-9,-5 9,-5 9,-5 C11.208999633789062,-5 13,-3.2090001106262207 13,-1 C13,-1 13,4 13,4 C13,4.552000045776367 12.552000045776367,5 12,5 C12,5 -12,5 -12,5 C-12.552000045776367,5 -13,4.552000045776367 -13,4 C-13,4 -13,-1 -13,-1 C-13,-3.2090001106262207 -11.208999633789062,-5 -9,-5z"></path></g><g id="l_d_3979" opacity="1" transform="matrix(1,0,0,1,49,43)"><path id="l_d_3980" fill="rgb(34,34,34)" fill-opacity="1" d=" M0,-1 C0.5519999861717224,-1 1,-0.5519999861717224 1,0 C1,0.5519999861717224 0.5519999861717224,1 0,1 C-0.5519999861717224,1 -1,0.5519999861717224 -1,0 C-1,-0.5519999861717224 -0.5519999861717224,-1 0,-1z"></path></g><g id="l_d_3981" opacity="1" transform="matrix(1,0,0,1,31,43)"><path id="l_d_3982" fill="rgb(34,34,34)" fill-opacity="1" d=" M0,-1 C0.5519999861717224,-1 1,-0.5519999861717224 1,0 C1,0.5519999861717224 0.5519999861717224,1 0,1 C-0.5519999861717224,1 -1,0.5519999861717224 -1,0 C-1,-0.5519999861717224 -0.5519999861717224,-1 0,-1z"></path></g><g id="l_d_3983" opacity="1" transform="matrix(1,0,0,1,40,34)"><path id="l_d_3984" stroke-linecap="butt" stroke-linejoin="miter" fill-opacity="0" stroke-miterlimit="4" stroke="rgb(34,34,34)" stroke-opacity="1" stroke-width="2" d=" M-7.307000160217285,-4 C-7.307000160217285,-4 7.307000160217285,-4 7.307000160217285,-4 C7.723999977111816,-4 8.097000122070312,-3.740999937057495 8.243000030517578,-3.3510000705718994 C8.243000030517578,-3.3510000705718994 11,4 11,4 C11,4 11,4 11,4 C11,4 -11,4 -11,4 C-11,4 -8.243000030517578,-3.3510000705718994 -8.243000030517578,-3.3510000705718994 C-8.097000122070312,-3.740999937057495 -7.723999977111816,-4 -7.307000160217285,-4z"></path></g><g id="l_d_3985" opacity="1" transform="matrix(1,0,0,1,27.5,36)"><path id="l_d_3986" fill="rgb(34,34,34)" fill-opacity="1" d=" M-1.5,-1 C-1.5,-1 1.5,-1 1.5,-1 C1.5,-1 1.5,1 1.5,1 C1.5,1 -1.5,1 -1.5,1 C-1.5,1 -1.5,-1 -1.5,-1z"></path></g><g id="l_d_3987" opacity="1" transform="matrix(1,0,0,1,52.5,36)"><path id="l_d_3988" fill="rgb(34,34,34)" fill-opacity="1" d=" M-1.5,-1 C-1.5,-1 1.5,-1 1.5,-1 C1.5,-1 1.5,1 1.5,1 C1.5,1 -1.5,1 -1.5,1 C-1.5,1 -1.5,-1 -1.5,-1z"></path></g><g id="l_d_3989" opacity="1" transform="matrix(1,0,0,1,40,43)"><path id="l_d_3990" stroke-linecap="butt" stroke-linejoin="miter" fill-opacity="0" stroke-miterlimit="4" stroke="rgb(34,34,34)" stroke-opacity="1" stroke-width="2" d=" M-6,0 C-6,0 6,0 6,0"></path></g></g><g id="l_d_3965" clip-path="url(#__lottie_element_1704)" style="display: none;"><g id="l_d_3971"><path id="l_d_3972"></path></g></g><g id="l_d_3957" clip-path="url(#__lottie_element_1701)" style="display: none;"><g id="l_d_3963"><path id="l_d_3964"></path></g></g><g id="l_d_3949" clip-path="url(#__lottie_element_1698)" style="display: none;"><g id="l_d_3955"><path id="l_d_3956"></path></g></g><g id="l_d_3941" clip-path="url(#__lottie_element_1695)" style="display: none;"><g id="l_d_3947"><path id="l_d_3948"></path></g></g><g id="l_d_3933" clip-path="url(#__lottie_element_1692)" style="display: none;"><g id="l_d_3939"><path id="l_d_3940"></path></g></g><g id="l_d_3925" clip-path="url(#__lottie_element_1689)" style="display: none;"><g id="l_d_3931"><path id="l_d_3932"></path></g></g><g id="l_d_3917" clip-path="url(#__lottie_element_1686)" style="display: none;"><g id="l_d_3923"><path id="l_d_3924"></path></g></g></g></svg>