<svg id="l_d_3792" xmlns="http://www.w3.org/2000/svg" xmlns:xlink="http://www.w3.org/1999/xlink" viewBox="0 0 45 45" width="45" height="45" preserveAspectRatio="xMidYMid meet" style="width: 100%; height: 100%; transform: translate3d(0px, 0px, 0px); content-visibility: visible;"><defs id="l_d_3793"><clipPath id="__lottie_element_1648"><rect id="l_d_3796" width="45" height="45" x="0" y="0"></rect></clipPath><g id="__lottie_element_1659"><g id="l_d_3830" style="display: none;"><g id="l_d_3835"><path id="l_d_3836"></path></g></g></g><mask id="__lottie_element_1659_1" mask-type="alpha"><use id="l_d_3844" xlink:href="#__lottie_element_1659"></use></mask><g id="__lottie_element_1665"><g id="l_d_3845" style="display: none;"><g id="l_d_3850"><path id="l_d_3851"></path></g></g></g><mask id="__lottie_element_1665_1" mask-type="alpha"><use id="l_d_3870" xlink:href="#__lottie_element_1665"></use></mask></defs><g id="l_d_3794" clip-path="url(#__lottie_element_1648)"><g id="l_d_3871" transform="matrix(1,0,0,1,-23.5,-17.5)" opacity="1" style="display: block;"><g id="l_d_3875" opacity="1" transform="matrix(1,0,0,1,40,40)"></g><g id="l_d_3876" opacity="1" transform="matrix(1,0,0,1,40,40)"><path id="l_d_3877" stroke-linecap="butt" stroke-linejoin="miter" fill-opacity="0" stroke-miterlimit="4" stroke="rgb(34,34,34)" stroke-opacity="1" stroke-width="2" d=" M-12,-13 C-12,-13 12,-13 12,-13 C12.552000045776367,-13 13,-12.552000045776367 13,-12 C13,-12 13,12 13,12 C13,12.552000045776367 12.552000045776367,13 12,13 C12,13 -12,13 -12,13 C-12.552000045776367,13 -13,12.552000045776367 -13,12 C-13,12 -13,-12 -13,-12 C-13,-12.552000045776367 -12.552000045776367,-13 -12,-13z"></path></g><g id="l_d_3878" opacity="1" transform="matrix(1,0,0,1,40,35)"><path id="l_d_3879" stroke-linecap="butt" stroke-linejoin="miter" fill-opacity="0" stroke-miterlimit="4" stroke="rgb(34,34,34)" stroke-opacity="1" stroke-width="2" d=" M13,0 C13,0 -13,0 -13,0"></path></g><g id="l_d_3880" opacity="1" transform="matrix(1,0,0,1,49,31)"><path id="l_d_3881" fill="rgb(0,0,0)" fill-opacity="1" d=" M0,-1 C0.5519999861717224,-1 1,-0.5519999861717224 1,0 C1,0.5519999861717224 0.5519999861717224,1 0,1 C-0.5519999861717224,1 -1,0.5519999861717224 -1,0 C-1,-0.5519999861717224 -0.5519999861717224,-1 0,-1z"></path></g><g id="l_d_3882" opacity="1" transform="matrix(1,0,0,1,43,31)"><path id="l_d_3883" fill="rgb(0,0,0)" fill-opacity="1" d=" M0,-1 C0.5519999861717224,-1 1,-0.5519999861717224 1,0 C1,0.5519999861717224 0.5519999861717224,1 0,1 C-0.5519999861717224,1 -1,0.5519999861717224 -1,0 C-1,-0.5519999861717224 -0.5519999861717224,-1 0,-1z"></path></g><g id="l_d_3884" opacity="1" transform="matrix(1,0,0,1,37,31)"><path id="l_d_3885" fill="rgb(0,0,0)" fill-opacity="1" d=" M0,-1 C0.5519999861717224,-1 1,-0.5519999861717224 1,0 C1,0.5519999861717224 0.5519999861717224,1 0,1 C-0.5519999861717224,1 -1,0.5519999861717224 -1,0 C-1,-0.5519999861717224 -0.5519999861717224,-1 0,-1z"></path></g><g id="l_d_3886" opacity="1" transform="matrix(1,0,0,1,31,31)"><path id="l_d_3887" fill="rgb(0,0,0)" fill-opacity="1" d=" M0,-1 C0.5519999861717224,-1 1,-0.5519999861717224 1,0 C1,0.5519999861717224 0.5519999861717224,1 0,1 C-0.5519999861717224,1 -1,0.5519999861717224 -1,0 C-1,-0.5519999861717224 -0.5519999861717224,-1 0,-1z"></path></g></g><g id="l_d_3853" mask="url(#__lottie_element_1665_1)" style="display: none;"><g id="l_d_3852"><g id="l_d_3856"></g><g id="l_d_3857"><path id="l_d_3858" stroke-linecap="butt" stroke-linejoin="miter" fill-opacity="0" stroke-miterlimit="4"></path></g><g id="l_d_3859"><path id="l_d_3860" stroke-linecap="butt" stroke-linejoin="miter" fill-opacity="0" stroke-miterlimit="4"></path></g><g id="l_d_3861"><path id="l_d_3862"></path></g><g id="l_d_3863"><path id="l_d_3864"></path></g><g id="l_d_3865"><path id="l_d_3866"></path></g><g id="l_d_3867"><path id="l_d_3868"></path></g></g></g><g id="l_d_3838" mask="url(#__lottie_element_1659_1)" style="display: none;"><g id="l_d_3837"><g id="l_d_3841"><path id="l_d_3842" stroke-linecap="butt" stroke-linejoin="round" fill-opacity="0"></path></g></g></g><g id="l_d_3813" style="display: none;"><g id="l_d_3817"></g><g id="l_d_3818"><path id="l_d_3819" stroke-linecap="butt" stroke-linejoin="miter" fill-opacity="0" stroke-miterlimit="4"></path></g><g id="l_d_3820"><path id="l_d_3821" stroke-linecap="butt" stroke-linejoin="miter" fill-opacity="0" stroke-miterlimit="4"></path></g><g id="l_d_3822"><path id="l_d_3823"></path></g><g id="l_d_3824"><path id="l_d_3825"></path></g><g id="l_d_3826"><path id="l_d_3827"></path></g><g id="l_d_3828"><path id="l_d_3829"></path></g></g><g id="l_d_3805" style="display: none;"><g id="l_d_3809"><path id="l_d_3810" stroke-linecap="butt" stroke-linejoin="miter" fill-opacity="0" stroke-miterlimit="4"></path></g><g id="l_d_3811"><path id="l_d_3812" stroke-linecap="butt" stroke-linejoin="miter" fill-opacity="0" stroke-miterlimit="4"></path></g></g><g id="l_d_3797" transform="matrix(1,0,0,1,-23.5,-17.5)" opacity="1" style="display: block;"><g id="l_d_3801" opacity="1" transform="matrix(1,0,0,1,40,44)"><path id="l_d_3802" stroke-linecap="butt" stroke-linejoin="miter" fill-opacity="0" stroke-miterlimit="4" stroke="rgb(34,34,34)" stroke-opacity="1" stroke-width="2" d=" M-9,-5 C-9,-5 9,-5 9,-5 C9,-5 9,5 9,5 C9,5 -9,5 -9,5 C-9,5 -9,-5 -9,-5z"></path></g><g id="l_d_3803" opacity="1" transform="matrix(1,0,0,1,40,35)"><path id="l_d_3804" stroke-linecap="butt" stroke-linejoin="miter" fill-opacity="0" stroke-miterlimit="4" stroke="rgb(34,34,34)" stroke-opacity="1" stroke-width="2" d=" M13,0 C13,0 -13,0 -13,0"></path></g></g></g></svg>